<svg id="Logo" data-name="Layer 1" xmlns="http://www.w3.org/2000/svg" viewBox="0 0 703.03 165.95"><defs><style>.cls-1{fill:#e03c26;}</style></defs><g id="uwgGLw"><path class="cls-1" d="M634.76,18.57c7.66,1.63,15.39,3,23,4.94,19,4.76,35.43,14.35,49.88,27.35A119.08,119.08,0,0,1,746,119.41c1.34,7.24,1.3,14.77,1.53,22.18a9.23,9.23,0,0,1-7.55,9.16c-4.58.81-9.75-1.87-11.25-6.22a23.3,23.3,0,0,1-1-6.77c-.7-23.75-9.07-44.48-24.48-62.55a101,101,0,0,0-57.12-34,153.78,153.78,0,0,0-21.54-2.63c-6.39-.44-10.55-2.6-11.67-7.11q-1.79-7.14,6.25-12.11c.25-.15.37-.51.55-.77Z" transform="translate(-44.54 -18.57)"/><path class="cls-1" d="M171.35,175.36c-8,2.8-14.77,5.78-21.85,7.53-18.06,4.45-39.31-4.47-48.71-20.72-8.5-14.68-8.58-35.46,5.6-50,13.49-13.81,30.71-18.32,49.3-12.53,17.24,5.37,28.37,17.29,31.23,35.57a64.37,64.37,0,0,1,.13,14.88c-.51,6.45,1.12,11.57,6.5,15.61,4,3,4.91,7.43,3,12s-5.71,6.8-10.4,5.77a52.73,52.73,0,0,1-12-4.81C172.66,178,171.81,176,171.35,175.36ZM141,117.91a22.56,22.56,0,0,0-22.81,23c0,12.43,10.72,22.87,23.32,22.81s22.79-10.82,22.81-23.78C164.31,128,153.64,117.86,141,117.91Z" transform="translate(-44.54 -18.57)"/><path class="cls-1" d="M332.81,174.87c-21.27,13.59-46.24,11.65-62.71-4.88-20.73-20.81-13-57,14.36-68.09,19.21-7.79,36.62-5.6,52.19,8.12,8.36,7.37,13.45,16.58,13.47,28.07,0,4.31.28,8.64-.07,12.92-.48,5.92,1.43,10.4,6,14.33,5.27,4.52,6.05,9.14,3.28,13.45a12.27,12.27,0,0,1-15.4,4C340,180.83,336.72,177.71,332.81,174.87Zm-5.59-34.05c0-13.3-9.72-22.91-23.21-22.91A22.73,22.73,0,0,0,281.2,141c0,11.87,11.05,22.77,23,22.75A22.89,22.89,0,0,0,327.22,140.82Z" transform="translate(-44.54 -18.57)"/><path class="cls-1" d="M534.79,154.53c-3.18-.27-5.69-.33-8.15-.73a9.32,9.32,0,0,1-7.72-9.43c.21-5,3.67-9.2,8.47-9.34,8.64-.26,17.3-.35,25.93,0,6,.27,10.45,7.43,9.14,14.11-3.6,18.41-14.77,29.69-33,34a44.69,44.69,0,0,1-53.65-30.56c-7.37-23.78,8.51-49.92,33.06-54.46,12.19-2.25,23.72-.86,34.23,6.11,6.35,4.21,7.78,10.91,3.79,17.23-3.23,5.13-10.5,6.16-16.59,2.36-7.2-4.49-18.1-4.07-24.79,1-7.47,5.62-10.47,13.44-7.51,21.75C504,163.46,525.56,164.48,534.79,154.53Z" transform="translate(-44.54 -18.57)"/><path class="cls-1" d="M622.12,183.65c-22.78.64-44.56-18.7-44.32-43.6.22-23.33,20.88-43,45.48-43,23.52,0,44.26,20.35,44.2,43.35C667.42,164.54,646.61,184.45,622.12,183.65Zm21.72-43.85c.85-12.11-11.53-21.18-21.77-20.77-12.57.51-20.89,9.53-21.12,21.64-.21,11.49,10.25,21.22,21.79,21.23C634.49,161.91,643.9,152.06,643.84,139.8Z" transform="translate(-44.54 -18.57)"/><path class="cls-1" d="M457,155.94c0,5.63.08,11.26,0,16.89-.13,6.68-4.64,10.86-11.5,10.82s-11.37-4.2-11.44-11c-.09-9.27.29-18.56-.14-27.82-.36-7.75-2-15.21-7.61-21.35-8.86-9.71-24.26-5.24-28.25,6A57.32,57.32,0,0,0,395,145.35c-.5,8.75-.06,17.55-.18,26.32-.06,4.71-1.64,8.89-6.22,11-4.37,2-8.69,1.28-12.75-1.2s-4.33-7-4.37-10.89c-.11-11.25.22-22.52.65-33.76.73-18.88,18.74-36.87,37.57-38.82,28-2.89,46.71,19.28,47.32,43C457.09,146,457,151,457,155.94Z" transform="translate(-44.54 -18.57)"/><path class="cls-1" d="M230.29,118.27c0,12.9-.31,25.31.23,37.69.13,2.88,2.58,6.33,5,8.3,3.94,3.24,5.91,6.68,4.51,12.05-1.19,4.57-4.75,6.8-9.11,7.19-8.91.8-15-4.25-18.56-11.44a43.48,43.48,0,0,1-4.76-17.79c-.51-24.83-.23-49.68-.21-74.52,0-7,5.1-12.6,11.5-12.1S231,72.11,230.35,79.79c-.45,5.25,0,10.59.07,15.88,0,.29.26.57.59,1.24,7.56.9,18.87-2.3,18.91,10.31C250,119.6,238.9,117.28,230.29,118.27Z" transform="translate(-44.54 -18.57)"/><path class="cls-1" d="M67.45,96.91c8.36,1.09,19.39-2,19.67,10.23.3,12.82-11,10.33-19.51,11.07,0,13.16-.33,26,.26,38.85.13,2.78,3,6,5.55,8,4.1,3.18,4.76,7.17,3.73,11.43s-4.18,6.76-9,7.24c-10.74,1.1-20.24-8.85-22.6-20.81a60.79,60.79,0,0,1-1-11.27q-.12-35.76,0-71.5c0-5.73,3-10.15,7.58-11.52C57.4,67,63.53,69,66.08,73.53a12.41,12.41,0,0,1,1.31,5.61C67.56,84.9,67.45,90.67,67.45,96.91Z" transform="translate(-44.54 -18.57)"/><path class="cls-1" d="M707.69,136.88c0,1.49,0,3,0,4.46-.18,4.8-3.54,8.8-7.88,9.44-5.08.74-10-1.9-11-6.78-1.39-6.37-1.63-13-3.14-19.34-5.53-23.21-29.35-43.48-53-45.54-3.28-.28-6.56-.69-9.85-.85-6.23-.29-9.91-3.91-9.92-9.94,0-5.66,4-9.75,10.09-9.86a81.16,81.16,0,0,1,44,11.68c22.14,13.35,35.83,32.71,40,58.38.45,2.76.68,5.55,1,8.32Z" transform="translate(-44.54 -18.57)"/></g></svg>
